<svg clip-rule="evenodd" fill-rule="evenodd" stroke-linejoin="round" stroke-miterlimit="2" viewBox="0 0 600 600" xmlns="http://www.w3.org/2000/svg"><g fill="#00655a"><path d="m580.895 315.129c-.58.69-14.9.58-15.47.32-1.23-.56-.58-30.46-7.03-61.18-3.84-18.34-11.74-42.77-19.68-59.12-13.5-27.77-29.6-52.8-50.64-74.46-21.37-22-43.33-39.5-70.92-53.7-36.16-18.62-75.9-28.66-116.63-28.66-71.45-.01-139.82 30.33-187.71 81.71-22.4 24.03-36.3 44.25-50.65 73.77-28.94 59.53-25.91 120.15-27.22 121.34-.6.54-14.86.6-15.47.16-1.98-1.44-5.21-115.62 81.31-206.32 51.9-54.41 122.64-86.95 199.24-86.73 75.36.22 148.91 31.9 199.05 86.43 23.88 25.97 38.37 46.3 53.69 78.17 9.68 20.14 15.97 40.6 21.26 62.88 2.06 8.71 4.57 23.67 5.37 32.51.47 5.27 2.58 31.59 1.5 32.88z"/><path d="m148.085 120.809c1.11-.77 20.31 19.23 22.02 20.84 7.2 6.77 13.42 13.2 20.56 19.95 2.61 2.47 40.06 39.91 41.33 40.27 2.86.79 25.2-15.28 68.03-15.21 43.82.09 65.28 16.04 67.92 15.3 1.71-.48 22.25-21.55 42.07-40.73 6.81-6.6 13.48-13.18 21.02-20.48 1.48-1.43 19.8-20.61 20.91-19.91 1.28.81.3 40.89.3 45.9-.02 15.33.02 30.67-.06 46-.09 14.94-.48 84.16.13 92.02.07.98 17.62 41.97 22.08 51.54 3.64 7.8 7.16 16.6 11.11 25.95 1.01 2.38 11.83 24.99 10.9 25.85-1.47 1.36-87.56-1.52-88.57.54-.53 1.07 16.28 15.33 28.13 34.14 18.68 29.65 20.72 48.25 22.55 48.99 2.43.98 24.89-28.68 26.55-31 7.09-9.86 15.75-24.52 21.06-35.48 28.9-59.69 24.27-107.82 25.82-109.14.61-.53 14.68-.44 15.24-.25 3.69 1.33-4.62 53.71-5.62 57.85-4.98 20.8-9.72 34.96-18.64 54.44-10.91 23.87-28.92 50.76-46.74 69.7-46.86 49.83-105.6 78.74-175.16 79.83-64.75 1.01-133.91-31.17-176.12-78.87-19.24-21.73-35.63-44.4-47.51-70.55-9.46-20.83-13.14-31.64-18.46-54.04-1.18-4.99-9.78-55.48-6.02-58.17.62-.44 14.66-.43 15.27-.12.98.51 1.44 21.47 2.16 27.73 1.08 9.57 2.54 19.65 4.83 28.5 6.59 25.53 8.33 29.31 18.7 52.61 4.99 11.21 13.68 24.62 21.02 35.52 2.06 3.07 24.2 31.75 26.64 31.52 1.32-.12 8.21-27.04 22.3-48.73 12.32-18.96 29.38-33.37 28.8-34.43-1.1-1.99-87.61 1.17-88.88-.63-.67-.96 9.44-22.55 10.63-25.38 3.89-9.23 8.02-18.28 11.89-27.54 3.4-8.15 21.14-48.08 21.45-49.46.28-1.26.04-78.88.08-92.44.05-15.33-.03-30.67-.05-46-.01-5.17-.91-45.58.33-46.43zm232.54 87.39c.24.82 14.29 9.75 17.89 13.05 6.79 6.23 10.11 9.57 16.24 15.75 2.32 2.33 10.33 13.83 13 17.91 5.23 8.01 10.47 21.14 11.41 21.14 1.4 0 .52-29.53.5-31.31-.09-10.5-.03-21-.04-31.5s.07-21 .15-31.5c.03-2.6 1.03-31.11-.15-31.7-.99-.49-14.27 13.17-15.17 14.14-3.72 4.03-9.86 9.81-14.28 14.21-2.3 2.28-29.98 28.37-29.55 29.81zm-161 .06c-.4 1.55-18.04 10.53-34.52 29.06-1.93 2.17-11.71 15.68-12.97 17.99-1.59 2.92-3.98 6.76-5.7 9.88-1.07 1.93-4.92 11.56-5.71 11.29-1.27-.44-.09-28.71-.07-31.24.08-11.29.2-21.9-.02-31.5-.23-10.5.12-21-.11-31.5-.17-7.64-.88-30.97-.24-31.75 1.02-1.25 28.57 26.78 30.08 28.4 2.26 2.41 29.63 27.94 29.26 29.37zm137.79 3.04c.53 1.03-14.53 15.06-16.16 16.68-6.62 6.61-10.23 10.91-15.86 17.65-9.53 11.44-22.65 37.24-25.04 38.33-1.88.86-16.21-25.55-26.13-38.38-11.62-15.03-32.03-32.99-31.43-34.17 1.05-2.06 23.01-8.42 27.2-9.3 7.15-1.49 24.11-3.7 29.53-3.31 11.9.86 16.02.75 29.49 3.48 4.31.87 27.24 6.75 28.4 9.02zm-127.38 6.38c1.31.23 34.06 32.85 32.61 34.23-.83.78-19.18-8.7-41.63-5.77-27.01 3.54-33.72 13.65-34.84 12.01-1.14-1.67 16.37-20.57 19.17-23.1 3.13-2.83 21.66-17.88 24.69-17.37zm139.98.53c6.66-1.22 44.34 34.82 42.87 38.52-.79 1.98-10.2-8.69-34.35-11.09-24.36-2.42-39.66 6.5-40.3 5.47-.89-1.44 30.34-32.64 31.78-32.9zm-96.52 159.09c-.92-.53-3.61-12.46-8.82-23.63-3.59-7.72-9.16-15.75-9.36-16.98-.11-.66 1.59-8.17-1.03-15.04-1.58-4.16-4.47-7.96-7.98-10.62-1.37-1.05-2.79-1.94-4.34-2.67-3.9-1.84-9.16-2.82-13.46-2.28-1.64.21-3.22.77-3.97.63-1.31-.24-35.64-33.35-34.95-34.95 1.38-3.23 17.19-10.18 21.49-11.3 10.9-2.85 18.6-3.53 29.92-2 17.09 2.3 31.53 11.89 42.8 25.05 10.75 12.57 16.28 34.78 13.61 52.21-4.24 27.61-22.86 42.17-23.91 41.58zm137.46-104.59c-.46.85-34.12 33.52-34.96 33.96-1 .53-2.64-.38-4.95-.63-4.22-.45-9.15.53-12.94 2.37-1.95.94-3.74 2.15-5.33 3.6-4.81 4.42-7.95 10.58-8.47 17.21-.28 3.54.76 6.51.38 8.06-.18.7-6.05 9.06-9.2 15.94-3.29 7.18-8.03 23.83-8.88 24.22-3.53 1.59-46.78-45.61-9.93-94.08 9.7-12.76 26.56-22.7 42.38-24.9 32.18-4.49 52.62 12.95 51.9 14.25zm-230.98 8.2c1.21.29 33.05 31.38 33.48 32.35.5 1.11-1.18 2.03-1.66 2.82-4.05 6.59-5.84 13.61-3.77 21.16 1.59 5.83 5.55 11.1 10.64 14.25 3.98 2.46 9.14 3.86 13.88 3.51 2.19-.16 4.39-.58 6.47-1.29 6.54-2.25 7.51-5.33 9.03-5.12 3.69.5 15.3 34.89 14.55 36.68-1.08 2.54-26.21 14.12-51.04 6.38-16.16-5.03-23.74-11.48-34.79-23.7-9.91-10.95-15.38-29.47-14.81-44.71.87-23.5 15.82-42.87 18.02-42.33zm240.1.01c3.72-.96 36.27 44.98 3.53 86.88-31.51 40.33-80.69 24-85.66 18-1.62-1.96 10.9-36.83 14.06-37.25 1.1-.14 1.99 1.46 2.82 1.97 2.84 1.7 5.81 3.38 9.15 3.99 1.46.27 3.06.51 4.55.53 4.3.08 10.25-1.58 13.88-3.98 5.16-3.41 9.51-9.79 10.38-15.78 1.04-7.12-.47-13.35-4.47-19.27-.53-.78-1.58-1.19-1.67-2.28-.09-.98 13.58-13.73 16.9-16.97 6.84-6.69 15.9-15.68 16.53-15.84zm30.47 52.38c1.43-.22 13.09 29.59 14.05 31.91.8 1.96 13.96 30.38 12.59 30.8-.65.2-23.56.02-32.66.08-2.85.03-32.18.61-32.8-.55-.33-.64 2.46-1.6 6.82-5.27 2.17-1.83 4.4-3.61 6.47-5.54 4.18-3.88 8.13-7.99 11.19-12.87 14.08-22.5 13.33-38.4 14.34-38.56zm-301 .34c1.57.27-.57 16.73 14.78 38.4 10.63 15.01 24.49 22.65 24.06 23.59-.56 1.22-30.34.5-32.86.44-3.75-.09-32.04.39-32.63-.77-.54-1.08 11.02-26.26 13.17-31.54.84-2.04 12.09-30.37 13.48-30.12zm150.5 32.35c.8.04 7.04 10.22 10.02 13.71 3.97 4.64 11.62 10.65 11.86 11.1.52.96-3.43 15.42-4.5 19.41-2.85 10.58-3.98 18.93-4.79 19.65-.96.87-10.93-.12-11.56.03-2.93.67-12.29.82-13.12.53-1.47-.54-4.39-15.48-5.36-19.2-1.97-7.59-5.76-19.52-5.05-20.47.77-1.03 7.79-6.09 12.12-11.39 2.73-3.36 9.54-13.41 10.38-13.37zm-33.35 31.95c1 .45 5.67 22.41 6.77 26.81.61 2.41 6.98 26.62 5.94 27.32-1.17.79-23.02-20.48-24.98-22.21-1.52-1.34-24.42-22.08-23.5-23.19.76-.91 5.16.33 18.59-2.98 12.93-3.19 15.55-6.47 17.18-5.75zm66.91-.06c.99-.6 8.05 3.54 17.39 5.98 8.87 2.32 17.87 1.92 18.6 2.84.89 1.12-22.1 21.58-23.67 22.93-3.4 2.93-23.24 22.05-24.44 21.83-1.87-.35 10.75-52.75 12.12-53.58zm-120.1 11.26c1.11-.2 16.24 14.96 21.08 19.03 6.61 5.55 15.7 14.67 21.86 20.16 4.14 3.7 42.41 40.54 44.09 39.94.49-.17 6.92-6.86 10.43-10.1 3.54-3.25 7.23-6.4 10.65-9.84.71-.71 19.6-18.24 21.28-19.73 4.68-4.13 42.45-39.53 44.09-39.18 7.15 1.52 31.37 29.14 35.7 36.22 4.54 7.42 9.16 13.64 13.2 22.95 3.78 8.71 12.55 30.8 11.67 33.66-.74 2.39-20.26 16.69-26.69 21.27-7.02 5-22.93 13.89-30.83 17.24-19.02 8.08-21.41 9.65-42.99 14.55-24.74 5.62-42.2 4.63-47.56 5.75-5.9 1.23-33.06-2.52-46.44-5.4-15.01-3.24-30.22-8.65-43.45-15.08-8.45-4.11-23.12-11.58-29.74-16.6-6.92-5.24-25.7-18.63-26.87-21.73-1.28-3.39 8.01-26.25 10.84-32.6 4.83-10.84 8.36-15.24 13.45-23.77 5.27-8.8 11.21-13.61 16.47-19.96 2.68-3.23 17.17-16.33 19.76-16.78z"/></g></svg>